<?xml version="1.0" encoding="UTF-8" standalone="no"?>
<svg
   xmlns:dc="http://purl.org/dc/elements/1.1/"
   xmlns:cc="http://creativecommons.org/ns#"
   xmlns:rdf="http://www.w3.org/1999/02/22-rdf-syntax-ns#"
   xmlns:svg="http://www.w3.org/2000/svg"
   xmlns="http://www.w3.org/2000/svg"
   xmlns:sodipodi="http://sodipodi.sourceforge.net/DTD/sodipodi-0.dtd"
   xmlns:inkscape="http://www.inkscape.org/namespaces/inkscape"
   version="1.1"
   id="Layer_1"
   x="0px"
   y="0px"
   viewBox="0 0 1280 720"
   xml:space="preserve"
   sodipodi:docname="okjlogo.svg"
   width="1280"
   height="720"
   inkscape:version="1.0.1 (3bc2e813f5, 2020-09-07)"><metadata
   id="metadata17"><rdf:RDF><cc:Work
       rdf:about=""><dc:format>image/svg+xml</dc:format><dc:type
         rdf:resource="http://purl.org/dc/dcmitype/StillImage" /><dc:title /></cc:Work></rdf:RDF></metadata><defs
   id="defs15" /><sodipodi:namedview
   pagecolor="#ffffff"
   bordercolor="#666666"
   borderopacity="1"
   objecttolerance="10"
   gridtolerance="10"
   guidetolerance="10"
   inkscape:pageopacity="0"
   inkscape:pageshadow="2"
   inkscape:window-width="2560"
   inkscape:window-height="1343"
   id="namedview13"
   showgrid="false"
   inkscape:pagecheckerboard="true"
   inkscape:zoom="1.008"
   inkscape:cx="500"
   inkscape:cy="499.00794"
   inkscape:window-x="2560"
   inkscape:window-y="507"
   inkscape:window-maximized="1"
   inkscape:current-layer="Layer_1"
   inkscape:document-rotation="0" />
<style
   type="text/css"
   id="style2">
	.st0{fill:#FFFFFF;}
</style>



<rect
   style="fill:#000000;fill-opacity:1;stroke:#000080;stroke-width:0.755906;stroke-linejoin:round"
   id="rect862"
   width="1281.9991"
   height="720.19025"
   x="1.3352652"
   y="1.807561" /><rect
   style="fill:#008000;fill-opacity:1;stroke:#000080;stroke-width:0.739337;stroke-linejoin:round"
   id="rect860"
   width="149.88046"
   height="111.25528"
   x="830.67957"
   y="305.23203" /><path
   sodipodi:type="star"
   style="fill:#008000;fill-opacity:1;stroke:#000080;stroke-width:0.755906;stroke-linejoin:round"
   id="path856"
   sodipodi:sides="3"
   sodipodi:cx="387.9581"
   sodipodi:cy="356.64639"
   sodipodi:r1="138.51259"
   sodipodi:r2="112.05904"
   sodipodi:arg1="0.053893871"
   sodipodi:arg2="1.1010914"
   inkscape:flatsided="true"
   inkscape:rounded="0.2"
   inkscape:randomized="0"
   d="m 526.26958,364.10776 c -2.58469,47.9125 -173.72786,134.78386 -213.92895,108.5892 -40.2011,-26.19466 -29.86233,-217.84466 12.92346,-239.5625 42.78579,-21.71785 203.59018,83.0608 201.00549,130.9733 z"
   inkscape:transform-center-x="-11.276935"
   inkscape:transform-center-y="2.4063113"
   transform="matrix(1.023802,0,0,1.0436356,-6.7738651,-13.132262)" /><path
   class="st0"
   d="m 556.495,340.94 v 19.62 19.62 c 0,2.36 0.29,4.42 0.89,6.2 0.2,0.98 0.52,1.84 0.96,2.58 0.44,0.74 0.91,1.5 1.4,2.29 1.08,1.38 2.36,2.36 3.84,2.95 1.48,0.69 3.29,1.03 5.46,1.03 2.26,0 4.13,-0.34 5.61,-1.03 1.48,-0.59 2.75,-1.57 3.84,-2.95 0.49,-0.79 0.96,-1.55 1.4,-2.29 0.44,-0.74 0.76,-1.6 0.96,-2.58 0.59,-1.77 0.89,-3.84 0.89,-6.2 v -19.62 -19.62 c 0,-2.16 -0.29,-4.23 -0.89,-6.2 -0.39,-1.57 -1.18,-3.19 -2.36,-4.87 -1.08,-1.38 -2.36,-2.36 -3.84,-2.95 -1.48,-0.69 -3.34,-1.03 -5.61,-1.03 -2.16,0 -3.98,0.35 -5.46,1.03 -1.48,0.59 -2.75,1.57 -3.84,2.95 -1.18,1.67 -1.97,3.3 -2.36,4.87 -0.6,1.98 -0.89,4.04 -0.89,6.2 z"
   id="path4" /><path
   class="st0"
   d="m 987.345,299.96 c -4.9,-4.9 -11.16,-7.49 -18.11,-7.49 h -41.01 c -3.77,0 -7.35,0.79 -10.62,2.35 -2.47,1.17 -4.74,2.66 -6.75,4.43 l -0.69,0.65 c -0.32,0.32 -0.61,0.66 -0.91,1 -2.81,-3.11 -6.41,-5.46 -10.46,-6.81 -5.74,-2.05 -11.75,-2.1 -17.43,-0.13 -5.35,1.86 -9.89,5.31 -13.16,10 -0.88,-1.25 -1.88,-2.44 -3,-3.55 -2.32,-2.31 -5.01,-4.19 -7.99,-5.56 -3.39,-1.57 -7.04,-2.36 -10.85,-2.36 -5.69,0 -11.05,1.76 -15.69,5.07 -1.51,-1.08 -3.1,-2.03 -4.79,-2.81 -3.28,-1.5 -6.82,-2.26 -10.5,-2.26 -7.04,0 -13.41,2.64 -18.41,7.64 -1.83,1.83 -3.38,3.93 -4.61,6.25 -2.31,-3.92 -5.37,-7.1 -9.12,-9.48 l -0.22,-0.13 c -4.63,-2.84 -9.65,-4.28 -14.91,-4.28 -6.26,0 -11.99,1.89 -16.82,5.45 -4.36,-3.52 -9.82,-5.45 -15.73,-5.45 h -36.73 c -6.95,0 -13.21,2.59 -18.11,7.49 -1.04,1.04 -1.95,2.15 -2.77,3.3 -0.88,-0.72 -1.78,-1.41 -2.71,-2.05 -1.52,-1.03 -3.18,-2.04 -4.94,-2.99 l -0.47,-0.24 c -2,-0.99 -3.97,-1.83 -5.89,-2.5 -1.78,-0.61 -3.64,-1.14 -5.54,-1.56 -3.87,-0.97 -8.08,-1.46 -12.53,-1.46 h -22.87 c -6.95,0 -13.21,2.59 -18.11,7.49 -0.74,0.74 -1.41,1.52 -2.04,2.32 -0.73,-0.63 -1.47,-1.25 -2.23,-1.84 -1.77,-1.37 -3.74,-2.61 -5.84,-3.69 -3.54,-2.01 -7.57,-3.58 -12.01,-4.69 -2.19,-0.55 -4.46,-0.97 -6.75,-1.25 -6.36,-0.77 -13.41,-0.46 -20.41,1.2 l -0.22,0.05 c -4.46,1.12 -8.58,2.71 -12.23,4.74 -2,1.08 -3.89,2.31 -5.62,3.65 -1.4,1.08 -2.82,2.27 -4.22,3.55 l -1.09,1.09 c -2.79,3.06 -5.14,6.35 -7.02,9.77 -0.59,1.04 -1.12,2.1 -1.61,3.16 -4.5,-5.08 -9.86,-9.49 -16,-13.03 l -127.2,-73.44 c -19.88,-11.48 -43.62,-11.48 -63.5,0 -19.88,11.48 -31.75,32.04 -31.75,55 v 146.88 c 0,22.96 11.87,43.52 31.75,55 9.94,5.74 20.85,8.61 31.75,8.61 10.9,0 21.81,-2.87 31.75,-8.61 L 507.605,415 c 5.97,-3.45 11.21,-7.73 15.63,-12.64 0.61,1.42 1.3,2.8 2.1,4.14 1.86,3.35 4.18,6.57 6.9,9.56 l 1.05,1.05 c 1.41,1.29 2.85,2.5 4.23,3.56 1.53,1.19 3.2,2.34 4.96,3.42 l 1.21,0.67 c 1.81,0.91 3.65,1.73 5.46,2.44 2.16,0.85 4.42,1.52 6.71,1.99 4.45,1.03 8.87,1.55 13.15,1.55 2.4,0 4.75,-0.14 7.03,-0.41 2.14,-0.26 4.28,-0.65 6.37,-1.15 2.25,-0.47 4.47,-1.13 6.61,-1.97 1.97,-0.77 3.9,-1.67 5.74,-2.66 l 0.22,-0.12 c 2.9,-1.63 5.64,-3.59 8.17,-5.83 0.63,0.79 1.3,1.56 2.03,2.29 5.1,5.1 11.66,7.79 19,7.79 7.24,0 13.76,-2.7 18.85,-7.79 5.1,-5.09 7.79,-11.66 7.79,-19 v -15.32 c 2.65,-0.23 5.19,-0.65 7.59,-1.25 2.03,-0.45 4.03,-1.04 5.92,-1.75 1.7,-0.63 3.4,-1.34 5.06,-2.1 l 0.88,-0.44 c 1.02,-0.55 2,-1.12 2.95,-1.71 v 23.75 c 0,6.95 2.59,13.21 7.49,18.1 4.9,4.91 11.17,7.5 18.12,7.5 h 37.03 c 5.59,0 10.76,-1.68 14.99,-4.77 4.36,3.12 9.42,4.77 14.88,4.77 3.61,0 7.09,-0.73 10.34,-2.15 3.06,-1.33 5.77,-3.17 8.08,-5.45 1.97,-1.96 3.57,-4.14 4.79,-6.51 2.3,4.04 5.57,7.41 9.57,9.84 4.6,2.84 9.54,4.27 14.69,4.27 6.42,0 12.15,-1.94 16.87,-5.59 1.64,1.26 3.39,2.35 5.29,3.23 3.39,1.57 7.04,2.36 10.85,2.36 7.33,0 13.9,-2.7 18.99,-7.79 1.05,-1.05 2,-2.16 2.84,-3.32 3.58,5.04 8.65,8.56 14.78,10.24 l 0.88,0.22 c 3.03,0.65 6.13,0.82 9.2,0.49 3.68,-0.39 7.2,-1.59 10.46,-3.55 2.91,-1.7 5.35,-3.86 7.34,-6.38 0.86,0.74 1.72,1.45 2.56,2.1 1.53,1.19 3.2,2.34 4.96,3.42 l 1.21,0.67 c 1.81,0.91 3.65,1.73 5.46,2.44 2.16,0.85 4.42,1.52 6.71,1.99 4.45,1.03 8.87,1.55 13.15,1.55 2.4,0 4.75,-0.14 7.03,-0.41 2.14,-0.26 4.28,-0.65 6.37,-1.15 2.25,-0.47 4.47,-1.13 6.61,-1.97 1.97,-0.77 3.9,-1.67 5.74,-2.66 l 0.22,-0.12 c 3.73,-2.09 7.2,-4.72 10.29,-7.81 3.06,-3.06 5.68,-6.6 7.79,-10.51 l 0.11,-0.21 c 1.81,-3.48 3.27,-7.3 4.36,-11.36 l 0.23,-1 c 0.36,-1.8 0.67,-3.67 0.92,-5.6 0.28,-2.2 0.43,-4.5 0.43,-6.83 v -62.99 c 0,-6.99 -2.59,-13.25 -7.5,-18.17 z m -487.73,101.15 -60.25,34.79 -15.63,-28.87 c 19.08,-14.12 25.39,-40.56 13.77,-62.02 l -11.86,-21.91 c -1.8,-3.32 -5.95,-4.56 -9.27,-2.76 -3.32,1.8 -4.56,5.95 -2.76,9.27 l 11.86,21.91 c 9.14,16.87 2.84,38.03 -14.03,47.17 -16.87,9.13 -38.03,2.84 -47.16,-14.03 l -11.86,-21.91 c -1.8,-3.32 -5.95,-4.56 -9.27,-2.76 -3.32,1.8 -4.56,5.95 -2.76,9.27 l 11.86,21.91 c 11.62,21.46 37.21,30.63 59.46,22.37 l 15.81,29.2 -55.1,31.81 c -31.66,18.28 -71.23,-4.57 -71.23,-41.12 V 286.54 c 0,-36.56 39.57,-59.4 71.23,-41.12 l 127.2,73.44 c 31.65,18.28 31.65,63.97 -0.01,82.25 z m 103.49,-40.55 v 20.51 c 0,1.67 -0.1,3.27 -0.29,4.79 -0.2,1.53 -0.44,3.02 -0.74,4.5 -0.79,2.95 -1.82,5.66 -3.1,8.11 -1.38,2.56 -3.05,4.82 -5.02,6.79 -2.07,2.07 -4.33,3.79 -6.79,5.16 -1.28,0.69 -2.61,1.3 -3.98,1.84 -1.38,0.54 -2.8,0.96 -4.28,1.25 -1.57,0.39 -3.17,0.69 -4.79,0.89 -1.62,0.2 -3.32,0.29 -5.09,0.29 -3.15,0 -6.39,-0.39 -9.74,-1.18 -1.47,-0.3 -2.9,-0.71 -4.28,-1.25 -1.38,-0.54 -2.75,-1.15 -4.13,-1.84 -1.28,-0.79 -2.46,-1.6 -3.54,-2.43 -1.08,-0.83 -2.16,-1.74 -3.25,-2.73 -1.97,-2.16 -3.59,-4.42 -4.87,-6.79 -0.79,-1.28 -1.4,-2.6 -1.84,-3.98 -0.44,-1.38 -0.86,-2.75 -1.25,-4.13 -0.69,-2.75 -1.03,-5.85 -1.03,-9.29 v -20.51 -20.5 c 0,-3.44 0.34,-6.49 1.03,-9.15 0.39,-1.47 0.81,-2.88 1.25,-4.2 0.44,-1.33 1.06,-2.68 1.84,-4.06 1.28,-2.36 2.9,-4.62 4.87,-6.79 1.08,-0.98 2.16,-1.89 3.25,-2.73 1.08,-0.84 2.26,-1.6 3.54,-2.29 2.46,-1.38 5.26,-2.46 8.41,-3.25 3.34,-0.79 6.59,-1.18 9.74,-1.18 1.77,0 3.47,0.1 5.09,0.29 1.62,0.2 3.22,0.49 4.79,0.89 3.15,0.79 5.9,1.87 8.26,3.25 1.38,0.69 2.6,1.45 3.69,2.29 1.08,0.84 2.11,1.75 3.1,2.73 1.97,2.07 3.64,4.33 5.02,6.79 1.38,2.75 2.41,5.51 3.1,8.26 0.29,1.38 0.54,2.83 0.74,4.35 0.2,1.53 0.29,3.12 0.29,4.79 z m 74.79,-12.24 c -0.69,2.56 -1.82,5.11 -3.39,7.67 -1.28,2.26 -3,4.33 -5.16,6.2 -0.98,0.98 -2.02,1.84 -3.1,2.58 -1.08,0.74 -2.26,1.45 -3.54,2.14 -1.28,0.59 -2.58,1.13 -3.91,1.62 -1.33,0.49 -2.68,0.89 -4.06,1.18 -2.66,0.69 -5.61,1.03 -8.85,1.03 h -4.72 -4.87 c -0.39,0 -0.74,0.15 -1.03,0.44 -0.29,0.29 -0.44,0.64 -0.44,1.03 v 14.9 14.75 c 0,3.05 -1.03,5.61 -3.1,7.67 -2.07,2.07 -4.57,3.1 -7.52,3.1 -3.05,0 -5.61,-1.03 -7.67,-3.1 -2.07,-2.06 -3.1,-4.62 -3.1,-7.67 v -41.89 -41.89 c 0,-2.66 0.93,-4.92 2.8,-6.79 1.87,-1.87 4.13,-2.8 6.79,-2.8 h 11.51 11.36 c 3.24,0 6.2,0.35 8.85,1.03 1.38,0.3 2.7,0.66 3.98,1.11 1.28,0.44 2.6,1.01 3.98,1.7 1.28,0.69 2.46,1.4 3.54,2.14 1.08,0.74 2.11,1.6 3.1,2.58 2.16,1.87 3.88,3.93 5.16,6.2 1.57,2.56 2.7,5.11 3.39,7.67 0.69,2.46 1.03,5.36 1.03,8.7 0,3.34 -0.34,6.24 -1.03,8.7 z m 64.76,61.54 c -1.67,1.86 -3.93,2.78 -6.79,2.78 h -18.44 -18.59 c -2.66,0 -4.92,-0.93 -6.79,-2.8 -1.87,-1.87 -2.8,-4.13 -2.8,-6.79 v -42.49 -42.48 c 0,-2.66 0.93,-4.92 2.8,-6.79 1.87,-1.87 4.13,-2.8 6.79,-2.8 h 18.29 18.44 c 2.75,0 4.96,0.93 6.64,2.78 1.87,1.85 2.8,4.1 2.8,6.73 0,2.64 -0.94,4.88 -2.8,6.73 -1.67,1.86 -3.89,2.78 -6.64,2.78 h -11.8 -11.65 c -0.39,0 -0.74,0.15 -1.03,0.44 -0.29,0.2 -0.44,0.55 -0.44,1.04 v 9.21 9.21 c 0,0.4 0.15,0.74 0.44,1.04 0.29,0.3 0.64,0.44 1.03,0.44 h 8.7 8.56 c 2.66,0 4.92,0.94 6.79,2.8 1.87,1.67 2.8,3.89 2.8,6.64 0,2.65 -0.94,4.92 -2.8,6.79 -1.87,1.87 -4.13,2.8 -6.79,2.8 h -8.56 -8.7 c -0.39,0 -0.74,0.15 -1.03,0.44 -0.29,0.3 -0.44,0.64 -0.44,1.04 v 11.42 11.28 c 0,0.5 0.15,0.89 0.44,1.19 0.39,0.2 0.74,0.3 1.03,0.3 h 11.95 11.8 c 1.38,0 2.66,0.27 3.84,0.81 1.18,0.54 2.16,1.2 2.95,1.98 0.49,0.49 0.91,1.1 1.25,1.83 0.34,0.73 0.61,1.49 0.81,2.27 0.3,0.88 0.54,1.76 0.74,2.63 0,2.65 -0.93,4.89 -2.8,6.75 z m 82.61,-50.33 v 41.01 c 0,3.34 -1.18,6.2 -3.53,8.56 -2.16,2.36 -5,3.54 -8.53,3.54 -2.16,0 -4.27,-0.64 -6.32,-1.92 -1.96,-1.18 -3.43,-2.8 -4.41,-4.87 l -12.5,-25.67 -12.5,-25.67 c -0.29,-0.39 -0.64,-0.54 -1.03,-0.44 -0.49,0 -0.74,0.25 -0.74,0.74 v 24.05 23.9 c 0,2.75 -0.94,5.07 -2.82,6.93 -0.89,0.89 -1.96,1.6 -3.19,2.14 -1.24,0.54 -2.55,0.81 -3.94,0.81 -2.68,0 -5,-0.98 -6.98,-2.95 -1.98,-1.97 -2.97,-4.28 -2.97,-6.93 v -41.01 -41.01 c 0,-3.44 1.19,-6.34 3.57,-8.7 2.38,-2.36 5.3,-3.54 8.77,-3.54 2.28,0 4.46,0.64 6.54,1.92 1.86,1.18 3.33,2.85 4.41,5.01 l 12.33,25.52 12.33,25.52 c 0.1,0.29 0.39,0.44 0.88,0.44 0.49,-0.2 0.74,-0.49 0.74,-0.89 v -23.75 -23.75 c 0,-1.38 0.27,-2.68 0.81,-3.91 0.54,-1.23 1.25,-2.29 2.14,-3.17 1.97,-1.97 4.33,-2.95 7.08,-2.95 1.38,0 2.66,0.27 3.84,0.81 1.18,0.54 2.26,1.25 3.25,2.14 1.87,1.87 2.8,4.23 2.8,7.08 v 41.01 z m 74.94,44.99 c -0.39,1.38 -0.98,2.63 -1.77,3.76 -0.79,1.13 -1.87,2.09 -3.24,2.88 -1.28,0.79 -2.61,1.25 -3.98,1.4 -1.38,0.15 -2.75,0.07 -4.13,-0.22 -2.85,-0.79 -5.02,-2.41 -6.49,-4.87 l -11.06,-18.59 -11.06,-18.44 c -0.2,-0.29 -0.49,-0.44 -0.89,-0.44 -0.39,0.2 -0.59,0.44 -0.59,0.74 v 15.64 15.49 c 0,3.05 -1.03,5.61 -3.1,7.67 -2.07,2.07 -4.62,3.1 -7.67,3.1 -1.48,0 -2.85,-0.3 -4.13,-0.89 -1.28,-0.59 -2.41,-1.38 -3.39,-2.36 -2.07,-2.06 -3.1,-4.62 -3.1,-7.67 v -41.16 -41.3 c 0,-3.05 1.03,-5.61 3.1,-7.67 2.26,-2.06 4.82,-3.1 7.67,-3.1 1.48,0 2.85,0.29 4.13,0.89 1.28,0.59 2.41,1.38 3.39,2.36 2.07,2.06 3.1,4.62 3.1,7.67 v 14.6 14.75 c 0,0.29 0.2,0.54 0.59,0.74 0.39,0 0.64,-0.1 0.74,-0.29 l 11.51,-18 11.36,-17.85 c 1.38,-2.06 3.19,-3.49 5.46,-4.28 2.26,-0.79 4.57,-0.74 6.93,0.15 1.57,0.49 2.88,1.33 3.91,2.51 1.03,1.18 1.79,2.46 2.29,3.84 0.49,1.38 0.64,2.85 0.44,4.43 -0.2,1.58 -0.74,3.05 -1.62,4.43 l -10.77,16.38 -10.77,16.23 c -0.39,0.59 -0.59,1.13 -0.59,1.62 0,0.59 0.15,1.08 0.44,1.47 l 11.06,18 10.92,18.15 c 0.79,1.28 1.28,2.63 1.48,4.06 0.17,1.4 0.12,2.8 -0.17,4.17 z m 78.62,-54.87 v 31.42 c 0,1.67 -0.1,3.27 -0.29,4.79 -0.2,1.53 -0.44,3.02 -0.74,4.5 -0.79,2.95 -1.82,5.66 -3.1,8.11 -1.38,2.56 -3.05,4.82 -5.02,6.79 -2.07,2.07 -4.33,3.79 -6.79,5.16 -1.28,0.69 -2.61,1.3 -3.98,1.84 -1.38,0.54 -2.8,0.96 -4.28,1.25 -1.57,0.39 -3.17,0.69 -4.79,0.89 -1.62,0.2 -3.32,0.29 -5.09,0.29 -3.15,0 -6.39,-0.39 -9.74,-1.18 -1.48,-0.3 -2.9,-0.71 -4.28,-1.25 -1.38,-0.54 -2.75,-1.15 -4.13,-1.84 -1.28,-0.79 -2.46,-1.6 -3.54,-2.43 -1.08,-0.83 -2.16,-1.74 -3.25,-2.73 -1.97,-2.16 -3.59,-4.42 -4.87,-6.79 -0.79,-1.28 -1.4,-2.6 -1.84,-3.98 -0.44,-1.38 -0.86,-2.75 -1.25,-4.13 -0.69,-2.75 -1.03,-5.85 -1.03,-9.29 v -0.44 -0.44 c 0,-2.95 1.03,-5.46 3.1,-7.52 2.16,-2.16 4.72,-3.2 7.67,-3.1 2.95,0 5.46,1.03 7.52,3.1 2.07,2.26 3.1,4.77 3.1,7.52 v 0.15 c 0,2.26 0.29,4.28 0.89,6.05 0.2,0.98 0.52,1.84 0.96,2.58 0.44,0.74 0.91,1.5 1.4,2.29 1.08,1.38 2.36,2.36 3.84,2.95 1.48,0.69 3.29,1.03 5.46,1.03 2.26,0 4.13,-0.34 5.61,-1.03 1.48,-0.59 2.75,-1.58 3.84,-2.96 0.49,-0.79 0.96,-1.55 1.4,-2.29 0.44,-0.74 0.76,-1.6 0.96,-2.59 0.59,-1.78 0.89,-3.84 0.89,-6.21 V 354.58 329 c 0,-0.39 -0.15,-0.74 -0.44,-1.03 -0.29,-0.3 -0.64,-0.44 -1.03,-0.44 h -13.87 -13.72 c -2.66,0 -4.92,-0.93 -6.79,-2.78 -1.77,-1.66 -2.75,-3.85 -2.95,-6.59 0,-2.73 0.93,-5.03 2.8,-6.88 0.88,-0.78 1.89,-1.44 3.02,-1.97 1.13,-0.54 2.38,-0.81 3.76,-0.81 h 20.51 20.5 c 2.66,0 4.92,0.94 6.79,2.8 1.87,1.87 2.8,4.13 2.8,6.79 v 31.56 z"
   id="path6" /><path
   class="st0"
   d="m 634.825,329.01 v 10.6 10.6 c 0,0.6 0.15,0.95 0.44,1.05 0.29,0.3 0.64,0.45 1.03,0.45 h 4.28 4.28 c 1.67,0 3.34,-0.25 5.02,-0.75 1.38,-0.4 2.75,-1.19 4.13,-2.39 1.08,-0.89 1.97,-2.14 2.66,-3.73 0.59,-1.49 0.89,-3.23 0.89,-5.23 0,-1.99 -0.3,-3.73 -0.89,-5.23 -0.69,-1.59 -1.57,-2.83 -2.66,-3.73 -1.38,-1.19 -2.75,-1.99 -4.13,-2.39 -1.67,-0.5 -3.34,-0.75 -5.02,-0.75 h -4.28 -4.28 c -0.39,0 -0.74,0.15 -1.03,0.45 -0.3,0.21 -0.44,0.56 -0.44,1.05 z"
   id="path8" /><path
   class="st0"
   d="m 413.415,339.2 7.42,13.71 c 8.02,14.82 2.61,33.8 -12.36,41.54 -14.51,7.5 -32.41,2.03 -40.22,-12.39 l -27.68,-51.13 c -7.83,-14.46 -3.03,-32.81 11.25,-40.95 7.44,-4.24 15.89,-4.94 23.46,-2.69 7.37,2.19 13.91,7.2 17.87,14.5 l 0.44,0.82 -14.66,7.94 c -0.98,0.53 -1.65,1.4 -1.94,2.4 -0.3,0.99 -0.21,2.09 0.32,3.07 1.06,1.95 3.5,2.68 5.46,1.62 l 10.82,-5.86 c 2.12,-1.15 4.77,-0.36 5.91,1.76 1.15,2.12 0.36,4.77 -1.76,5.91 l -10.82,5.86 c -0.98,0.53 -1.65,1.41 -1.94,2.4 -0.29,0.95 -0.22,2.01 0.26,2.97 1.03,2.04 3.68,2.72 5.69,1.64 l 10.66,-5.77 c 2.12,-1.15 4.77,-0.36 5.91,1.76 1.15,2.12 0.36,4.77 -1.76,5.91 l -10.82,5.86 c -0.98,0.53 -1.65,1.4 -1.94,2.4 -0.3,0.99 -0.22,2.08 0.32,3.07 1.06,1.95 3.5,2.69 5.46,1.63 z"
   id="path10" />
</svg>
