<?xml version="1.0" encoding="UTF-8" standalone="no"?>
<svg
   xmlns:dc="http://purl.org/dc/elements/1.1/"
   xmlns:cc="http://creativecommons.org/ns#"
   xmlns:rdf="http://www.w3.org/1999/02/22-rdf-syntax-ns#"
   xmlns:svg="http://www.w3.org/2000/svg"
   xmlns="http://www.w3.org/2000/svg"
   xmlns:sodipodi="http://sodipodi.sourceforge.net/DTD/sodipodi-0.dtd"
   xmlns:inkscape="http://www.inkscape.org/namespaces/inkscape"
   version="1.1"
   x="0px"
   y="0px"
   viewBox="0 0 542.99999 543"
   xml:space="preserve"
   id="svg12"
   sodipodi:docname="OKJ FAVICON_CMYK.svg"
   width="543"
   height="543"
   inkscape:export-filename="/home/ipa/lightburnisaac/Pictures/OpenKJ-Graphics/favicon.png"
   inkscape:export-xdpi="11.314918"
   inkscape:export-ydpi="11.314918"
   inkscape:version="1.0.1 (3bc2e813f5, 2020-09-07)"><metadata
   id="metadata18"><rdf:RDF><cc:Work
       rdf:about=""><dc:format>image/svg+xml</dc:format><dc:type
         rdf:resource="http://purl.org/dc/dcmitype/StillImage" /><dc:title></dc:title></cc:Work></rdf:RDF></metadata><defs
   id="defs16" /><sodipodi:namedview
   pagecolor="#ffffff"
   bordercolor="#666666"
   borderopacity="1"
   objecttolerance="10"
   gridtolerance="10"
   guidetolerance="10"
   inkscape:pageopacity="0"
   inkscape:pageshadow="2"
   inkscape:window-width="1889"
   inkscape:window-height="911"
   id="namedview14"
   showgrid="false"
   fit-margin-top="0"
   fit-margin-left="0"
   fit-margin-right="0"
   fit-margin-bottom="0"
   inkscape:zoom="1.008"
   inkscape:cx="255.03"
   inkscape:cy="271.2925"
   inkscape:window-x="3012"
   inkscape:window-y="799"
   inkscape:window-maximized="0"
   inkscape:current-layer="svg12" />
<style
   type="text/css"
   id="style2">
	.st0{fill:#58595B;}
	.st1{fill:#39B54A;}
</style>

<g
   id="g848"
   transform="translate(20.43,0.21375)"><g
     id="Layer_2"
     transform="translate(-244.97,-228.7075)">
	<path
   class="st0"
   d="M 686.29,394.66 427.43,245.2 c -38.08,-21.99 -83.56,-21.99 -121.64,0 -38.08,21.99 -60.82,61.37 -60.82,105.34 v 298.91 c 0,43.97 22.74,83.35 60.82,105.34 19.04,11 39.93,16.49 60.82,16.49 20.89,0 41.78,-5.5 60.82,-16.49 L 686.29,605.33 c 38.08,-21.99 60.82,-61.37 60.82,-105.34 0,-43.97 -22.73,-83.34 -60.82,-105.33 z"
   id="path4" />
</g><g
     id="Layer_1"
     transform="translate(-244.97,-228.7075)">
	<path
   class="st1"
   d="M 673.79,416.31 414.93,266.85 c -64.42,-37.2 -144.96,9.3 -144.96,83.69 v 298.91 c 0,74.39 80.53,120.89 144.96,83.69 L 527.06,668.4 494.89,608.99 c -45.29,16.8 -97.35,-1.85 -121,-45.53 l -24.14,-44.58 c -3.66,-6.76 -1.14,-15.21 5.61,-18.87 6.76,-3.66 15.21,-1.15 18.87,5.61 l 24.14,44.58 c 18.59,34.33 61.65,47.14 95.98,28.55 34.34,-18.59 47.14,-61.65 28.55,-95.98 l -24.14,-44.58 c -3.66,-6.76 -1.15,-15.21 5.61,-18.87 6.76,-3.66 15.21,-1.15 18.87,5.61 l 24.14,44.58 c 23.65,43.68 10.81,97.47 -28.02,126.21 l 31.81,58.74 122.61,-70.79 c 64.44,-37.18 64.44,-130.16 0.01,-167.36 z"
   id="path7" />
	<path
   class="st0"
   d="m 498.36,457.71 15.1,27.89 c 16.33,30.16 5.32,68.78 -25.15,84.53 -29.52,15.26 -65.96,4.13 -81.85,-25.22 L 350.12,440.86 c -15.93,-29.43 -6.18,-66.78 22.9,-83.34 15.15,-8.63 32.34,-10.06 47.73,-5.48 15,4.46 28.31,14.65 36.36,29.51 l 0.9,1.67 -29.84,16.15 c -2,1.08 -3.37,2.86 -3.95,4.88 -0.61,2.01 -0.43,4.26 0.64,6.24 2.15,3.98 7.12,5.45 11.11,3.29 L 458,401.85 c 4.31,-2.33 9.7,-0.73 12.03,3.58 2.33,4.31 0.73,9.7 -3.58,12.03 l -22.03,11.93 c -2,1.08 -3.36,2.87 -3.95,4.88 -0.59,1.94 -0.45,4.1 0.53,6.03 2.09,4.14 7.49,5.54 11.57,3.33 l 21.68,-11.74 c 4.31,-2.33 9.7,-0.73 12.04,3.58 2.33,4.31 0.73,9.7 -3.58,12.03 l -22.03,11.93 c -2,1.08 -3.37,2.86 -3.95,4.88 -0.61,2.01 -0.44,4.24 0.64,6.24 2.15,3.98 7.13,5.47 11.12,3.31 z"
   id="path9" />
</g></g>
</svg>
