<?xml version="1.0" encoding="UTF-8" standalone="no"?>
<!-- Created with Inkscape (http://www.inkscape.org/) -->

<svg
   xmlns:dc="http://purl.org/dc/elements/1.1/"
   xmlns:cc="http://creativecommons.org/ns#"
   xmlns:rdf="http://www.w3.org/1999/02/22-rdf-syntax-ns#"
   xmlns:svg="http://www.w3.org/2000/svg"
   xmlns="http://www.w3.org/2000/svg"
   xmlns:xlink="http://www.w3.org/1999/xlink"
   xmlns:sodipodi="http://sodipodi.sourceforge.net/DTD/sodipodi-0.dtd"
   xmlns:inkscape="http://www.inkscape.org/namespaces/inkscape"
   width="152mm"
   height="152mm"
   viewBox="0 0 152 152"
   version="1.1"
   id="svg8"
   inkscape:version="0.92.2 (5c3e80d, 2017-08-06)"
   sodipodi:docname="okjicon.svg"
   inkscape:export-filename="/home/ipa/lightburnisaac/devel/OpenKJ/OpenKJ/Icons/okjicon32x32.png"
   inkscape:export-xdpi="5.3400002"
   inkscape:export-ydpi="5.3400002"
   enable-background="new">
  <defs
     id="defs2">
    <linearGradient
       inkscape:collect="always"
       id="linearGradient4976">
      <stop
         style="stop-color:#0000ff;stop-opacity:1;"
         offset="0"
         id="stop4972" />
      <stop
         style="stop-color:#0000ff;stop-opacity:0;"
         offset="1"
         id="stop4974" />
    </linearGradient>
    <linearGradient
       inkscape:collect="always"
       id="linearGradient3729">
      <stop
         style="stop-color:#000080;stop-opacity:1;"
         offset="0"
         id="stop3725" />
      <stop
         style="stop-color:#000080;stop-opacity:0;"
         offset="1"
         id="stop3727" />
    </linearGradient>
    <radialGradient
       inkscape:collect="always"
       xlink:href="#linearGradient3729"
       id="radialGradient4546"
       cx="110.34958"
       cy="58.876213"
       fx="110.34958"
       fy="58.876213"
       r="76"
       gradientUnits="userSpaceOnUse" />
    <radialGradient
       inkscape:collect="always"
       xlink:href="#linearGradient4976"
       id="radialGradient4978"
       cx="110.34958"
       cy="58.876213"
       fx="110.34958"
       fy="58.876213"
       r="76.134677"
       gradientUnits="userSpaceOnUse" />
  </defs>
  <sodipodi:namedview
     id="base"
     pagecolor="#ffffff"
     bordercolor="#666666"
     borderopacity="1.0"
     inkscape:pageopacity="0.0"
     inkscape:pageshadow="2"
     inkscape:zoom="1"
     inkscape:cx="98.93992"
     inkscape:cy="196.57645"
     inkscape:document-units="mm"
     inkscape:current-layer="layer1"
     showgrid="false"
     inkscape:window-width="1920"
     inkscape:window-height="983"
     inkscape:window-x="0"
     inkscape:window-y="27"
     inkscape:window-maximized="1" />
  <metadata
     id="metadata5">
    <rdf:RDF>
      <cc:Work
         rdf:about="">
        <dc:format>image/svg+xml</dc:format>
        <dc:type
           rdf:resource="http://purl.org/dc/dcmitype/StillImage" />
        <dc:title />
      </cc:Work>
    </rdf:RDF>
  </metadata>
  <g
     inkscape:groupmode="layer"
     id="layer3"
     inkscape:label="Layer 3">
    <ellipse
       style="display:inline;opacity:1;fill:#000000;fill-opacity:1;stroke-width:0.26899999;stroke-miterlimit:4;stroke-dasharray:none"
       id="path4970"
       cx="76"
       cy="76"
       rx="74.215622"
       ry="73.686455" />
  </g>
  <g
     inkscape:groupmode="layer"
     id="layer2"
     inkscape:label="Layer 2"
     transform="translate(-34.349579,17.123787)">
    <circle
       style="display:inline;opacity:1;fill:url(#radialGradient4978);fill-opacity:1;stroke:url(#radialGradient4546);stroke-width:0.26935369"
       id="path3723"
       cx="110.34958"
       cy="58.876213"
       r="76" />
  </g>
  <g
     inkscape:label="Layer 1"
     inkscape:groupmode="layer"
     id="layer1"
     transform="translate(-34.349579,17.123787)">
    <g
       aria-label="Open"
       style="font-style:normal;font-weight:normal;font-size:10.58333302px;line-height:6.61458302px;font-family:sans-serif;letter-spacing:0px;word-spacing:0px;fill:#000000;fill-opacity:1;stroke:none;stroke-width:0.26458332"
       id="text3690">
      <path
         d="m 78.328294,46.540657 q 0,3.249414 -1.116211,5.97793 -1.116211,2.728515 -3.100586,4.71289 -1.984375,1.984375 -4.712891,3.100586 -2.703711,1.091407 -5.903515,1.091407 h -8.73125 q -3.199805,0 -5.92832,-1.091407 -2.728516,-1.116211 -4.712891,-3.100586 -1.984375,-1.984375 -3.12539,-4.71289 -1.116211,-2.728516 -1.116211,-5.97793 v -6.796484 q 0,-3.224609 1.116211,-5.953125 1.141015,-2.75332 3.12539,-4.71289 1.984375,-1.984375 4.712891,-3.100586 2.728515,-1.116211 5.92832,-1.116211 h 8.73125 q 3.199804,0 5.903515,1.116211 2.728516,1.116211 4.712891,3.100586 1.984375,1.95957 3.100586,4.71289 1.116211,2.728516 1.116211,5.953125 z m -6.449219,-6.796484 q 0,-1.909961 -0.620117,-3.447852 -0.595313,-1.562695 -1.711523,-2.654101 -1.091407,-1.116211 -2.654102,-1.711523 -1.537891,-0.620118 -3.398242,-0.620118 h -8.73125 q -1.885156,0 -3.447852,0.620118 -1.53789,0.595312 -2.654101,1.711523 -1.116211,1.091406 -1.736328,2.654101 -0.595313,1.537891 -0.595313,3.447852 v 6.796484 q 0,1.909961 0.595313,3.472656 0.620117,1.537891 1.736328,2.654102 1.116211,1.091406 2.654101,1.711523 1.562696,0.595313 3.447852,0.595313 h 8.68164 q 1.885157,0 3.423047,-0.595313 1.562696,-0.620117 2.678907,-1.711523 1.11621,-1.116211 1.711523,-2.654102 0.620117,-1.562695 0.620117,-3.472656 z"
         style="font-style:normal;font-variant:normal;font-weight:normal;font-stretch:normal;font-size:50.79999924px;font-family:Audiowide;-inkscape-font-specification:'Audiowide, Normal';font-variant-ligatures:normal;font-variant-caps:normal;font-variant-numeric:normal;font-feature-settings:normal;text-align:start;writing-mode:lr-tb;text-anchor:start;fill:#ffff00;stroke-width:0.26458332"
         id="path4547"
         inkscape:connector-curvature="0" />
      <path
         d="m 113.50134,51.873665 q 0,1.661914 -0.42168,3.001367 -0.42168,1.314649 -1.11621,2.331641 -0.69453,0.992187 -1.6123,1.711523 -0.91778,0.694531 -1.93477,1.141016 -0.99219,0.446484 -2.00918,0.669726 -1.01699,0.198438 -1.93477,0.198438 H 92.839036 v -6.449219 h 11.633394 q 1.28985,0 1.93477,-0.669726 0.64492,-0.669727 0.64492,-1.934766 v -8.681641 q 0,-1.339453 -0.66972,-1.984374 -0.64493,-0.644922 -1.90997,-0.644922 H 92.888646 q -1.314649,0 -1.984375,0.669726 -0.669727,0.644922 -0.669727,1.909961 V 69.31136 H 83.785326 V 43.142415 q 0,-1.661914 0.421679,-2.976562 0.42168,-1.314649 1.116211,-2.306836 0.719336,-1.016992 1.63711,-1.711524 0.917773,-0.719336 1.90996,-1.16582 1.016993,-0.446484 2.033985,-0.644922 1.041797,-0.223242 1.934765,-0.223242 h 11.633394 q 1.66192,0 2.97657,0.42168 1.31465,0.421679 2.30683,1.116211 1.017,0.694531 1.71153,1.612304 0.71933,0.917774 1.16582,1.934766 0.44648,0.992187 0.64492,2.00918 0.22324,1.016992 0.22324,1.934765 z"
         style="font-style:normal;font-variant:normal;font-weight:normal;font-stretch:normal;font-size:50.79999924px;font-family:Audiowide;-inkscape-font-specification:'Audiowide, Normal';font-variant-ligatures:normal;font-variant-caps:normal;font-variant-numeric:normal;font-feature-settings:normal;text-align:start;writing-mode:lr-tb;text-anchor:start;fill:#ffff00;stroke-width:0.26458332"
         id="path4549"
         inkscape:connector-curvature="0" />
      <path
         d="m 147.90544,42.993587 q 0,1.339453 -0.47129,2.902148 -0.47129,1.537891 -1.53789,2.877344 -1.0418,1.314649 -2.75332,2.207617 -1.68672,0.892969 -4.11758,0.892969 h -11.6334 v -6.126758 h 11.6334 q 1.31465,0 2.03399,-0.79375 0.71933,-0.818554 0.71933,-2.009179 0,-1.265039 -0.81855,-1.984375 -0.79375,-0.719336 -1.93477,-0.719336 h -11.6334 q -1.31464,0 -2.03398,0.818554 -0.71934,0.79375 -0.71934,1.984375 v 9.004102 q 0,1.289844 0.79375,2.009179 0.81856,0.719336 2.00918,0.719336 h 11.58379 v 6.151563 h -11.6334 q -1.33945,0 -2.90214,-0.471289 -1.53789,-0.471289 -2.87735,-1.513086 -1.31465,-1.066602 -2.20761,-2.75332 -0.89297,-1.711524 -0.89297,-4.142383 v -9.053711 q 0,-1.339453 0.47129,-2.877344 0.47128,-1.562695 1.51308,-2.877343 1.0666,-1.339454 2.75332,-2.232422 1.71153,-0.892969 4.14238,-0.892969 h 11.6334 q 1.33946,0 2.87735,0.471289 1.56269,0.471289 2.87734,1.537891 1.33945,1.041797 2.23242,2.75332 0.89297,1.686719 0.89297,4.117578 z"
         style="font-style:normal;font-variant:normal;font-weight:normal;font-stretch:normal;font-size:50.79999924px;font-family:Audiowide;-inkscape-font-specification:'Audiowide, Normal';font-variant-ligatures:normal;font-variant-caps:normal;font-variant-numeric:normal;font-feature-settings:normal;text-align:start;writing-mode:lr-tb;text-anchor:start;fill:#ffff00;stroke-width:0.26458332"
         id="path4551"
         inkscape:connector-curvature="0" />
      <path
         d="m 182.01189,60.927376 h -6.44922 V 46.044564 q 0,-1.26504 -0.44649,-2.257227 -0.42168,-1.016992 -1.16582,-1.736328 -0.74414,-0.719336 -1.76113,-1.091406 -0.99219,-0.396875 -2.15801,-0.396875 h -11.28613 v 20.364648 h -6.44922 V 37.313314 q 0,-0.669727 0.24805,-1.240235 0.24804,-0.595312 0.69453,-1.016992 0.44648,-0.446484 1.0418,-0.694531 0.59531,-0.248047 1.26503,-0.248047 h 14.53555 q 1.21543,0 2.55488,0.272852 1.36426,0.272851 2.67891,0.892968 1.33945,0.595313 2.53008,1.537891 1.21543,0.917773 2.1332,2.257226 0.94258,1.314649 1.48828,3.050977 0.54571,1.736328 0.54571,3.919141 z"
         style="font-style:normal;font-variant:normal;font-weight:normal;font-stretch:normal;font-size:50.79999924px;font-family:Audiowide;-inkscape-font-specification:'Audiowide, Normal';font-variant-ligatures:normal;font-variant-caps:normal;font-variant-numeric:normal;font-feature-settings:normal;text-align:start;writing-mode:lr-tb;text-anchor:start;fill:#ffff00;stroke-width:0.26458332"
         id="path4553"
         inkscape:connector-curvature="0" />
    </g>
    <g
       aria-label="KJ"
       style="font-style:normal;font-weight:normal;font-size:10.58333302px;line-height:6.61458302px;font-family:sans-serif;letter-spacing:0px;word-spacing:0px;opacity:1;fill:#ffffff;fill-opacity:1;stroke:none;stroke-width:0.26458332"
       id="text3697">
      <path
         d="m 121.01661,104.6619 h -9.15292 L 97.352943,90.126357 h -4.539258 v -6.498828 h 4.539258 L 111.86369,69.091982 h 9.15292 l -18.28105,17.784961 z m -30.782612,0 H 83.784779 V 69.091982 h 6.449219 z"
         style="font-style:normal;font-variant:normal;font-weight:normal;font-stretch:normal;font-size:50.79999924px;font-family:Audiowide;-inkscape-font-specification:'Audiowide, Normal';font-variant-ligatures:normal;font-variant-caps:normal;font-variant-numeric:normal;font-feature-settings:normal;text-align:start;writing-mode:lr-tb;text-anchor:start;fill:#ffffff;stroke-width:0.26458332"
         id="path4556"
         inkscape:connector-curvature="0" />
      <path
         d="m 155.02384,95.608193 q 0,1.934765 -0.66973,3.596679 -0.66972,1.661918 -1.88515,2.877348 -1.19063,1.21543 -2.85254,1.90996 -1.66192,0.66972 -3.62149,0.66972 h -23.63886 v -6.449215 h 23.63886 q 1.19063,0 1.86036,-0.669727 0.66972,-0.694531 0.66972,-1.934765 V 69.091982 h 6.49883 z"
         style="font-style:normal;font-variant:normal;font-weight:normal;font-stretch:normal;font-size:50.79999924px;font-family:Audiowide;-inkscape-font-specification:'Audiowide, Normal';font-variant-ligatures:normal;font-variant-caps:normal;font-variant-numeric:normal;font-feature-settings:normal;text-align:start;writing-mode:lr-tb;text-anchor:start;fill:#ffffff;stroke-width:0.26458332"
         id="path4558"
         inkscape:connector-curvature="0" />
    </g>
  </g>
</svg>
